<svg width="24" height="24" viewBox="0 0 24 24" fill="none" xmlns="http://www.w3.org/2000/svg">
<path d="M8.52045 13.8458C7.48045 13.8458 6.63245 12.9008 6.63245 11.7448C6.63245 10.5878 7.45945 9.64281 8.52145 9.64281C9.57145 9.64281 10.4314 10.5878 10.4104 11.7448C10.4104 12.9008 9.57145 13.8458 8.52045 13.8458ZM15.4945 13.8448C14.4545 13.8448 13.6045 12.8998 13.6045 11.7438C13.6045 10.5868 14.4335 9.64181 15.4945 9.64181C16.5445 9.64181 17.4045 10.5868 17.3845 11.7438C17.3845 12.8998 16.5555 13.8448 15.4945 13.8448ZM10.1255 4.32081L9.81745 3.75781L9.18345 3.86381C7.74663 4.1034 6.34826 4.53387 5.02545 5.14381L4.79745 5.24881L4.65545 5.45881C2.04245 9.31181 1.32545 13.1068 1.68045 16.8338L1.71945 17.2408L2.04945 17.4808C3.58665 18.6087 5.30353 19.4685 7.12745 20.0238L7.91745 20.2658L9.03045 17.5498C10.9405 18.0218 13.0604 18.0218 14.9694 17.5498L16.0765 20.2668L16.8664 20.0248C18.6919 19.4707 20.4097 18.6101 21.9464 17.4798L22.2735 17.2418L22.3134 16.8398C22.7494 12.5198 21.6164 8.75681 19.3554 5.45581L19.2134 5.24781L18.9855 5.14381C17.663 4.53665 16.2663 4.10628 14.8315 3.86381L14.2135 3.76081L13.8995 4.30281C13.8115 4.45281 13.7224 4.62281 13.6364 4.79581C12.5517 4.68376 11.4582 4.68376 10.3735 4.79581C10.2885 4.62581 10.2035 4.46181 10.1255 4.32081ZM6.71545 16.6098C6.91245 16.7238 7.12045 16.8358 7.32545 16.9378L6.87645 18.0338C5.66203 17.5911 4.50984 16.9935 3.44845 16.2558C3.22345 13.1178 3.86145 9.95081 6.01245 6.68581C6.92021 6.28602 7.86646 5.9801 8.83645 5.77281C8.89645 5.89781 8.95245 6.02081 8.99845 6.12881L9.27145 6.77181L9.96345 6.67081C11.3195 6.47214 12.6974 6.47214 14.0535 6.67081L14.7435 6.77081L15.0155 6.12881C15.0625 6.01681 15.1175 5.89481 15.1755 5.77281C16.1525 5.98281 17.0985 6.29281 18.0035 6.68781C19.8785 9.50781 20.8244 12.6538 20.5494 16.2548C19.4882 16.9942 18.3351 17.5922 17.1194 18.0338L16.6744 16.9388C16.8804 16.8368 17.0885 16.7248 17.2875 16.6098C17.7775 16.3278 18.3044 15.9758 18.6404 15.6398L17.3605 14.3598C17.1975 14.5238 16.8374 14.7798 16.3834 15.0418C15.9394 15.2978 15.4984 15.5048 15.2164 15.5978C13.2134 16.2608 10.7885 16.2608 8.78445 15.5978C8.50345 15.5048 8.06245 15.2978 7.61845 15.0418C7.16445 14.7808 6.80445 14.5238 6.64045 14.3598L5.36045 15.6398C5.69745 15.9758 6.22545 16.3278 6.71545 16.6098Z" fill="black"/>
</svg>
